# xmcd
#
# Track frame offsets: 
#        150
#        27879
#        63468
#        98033
#        118532
#        156984
#        190256
#        217528
#        242626
#
# Disc length: 3516 seconds
#
# Revision: 0
# Processed by: cddbd v1.5.2PL0 Copyright (c) Steve Scherf et al.
# Submitted via: ExactAudioCopy v1.3
#
DISCID=6e0dba09
DTITLE=Armani Trio - Despues Blues y Baladas
DYEAR=2006
DGENRE=Jazz, Blues
TTITLE0=Circulo de Confianza
TTITLE1=Sweet soul
TTITLE2=Dulce Mauro
TTITLE3=L.B.
TTITLE4=Después
TTITLE5=For once in my life
TTITLE6=The rain song
TTITLE7=Reunión
TTITLE8=Alma de diamante
EXTD=
EXTT0=
EXTT1=
EXTT2=
EXTT3=
EXTT4=
EXTT5=
EXTT6=
EXTT7=
EXTT8=
PLAYORDER=
